<svg id="Layer_1" data-name="Layer 1" xmlns="http://www.w3.org/2000/svg" xmlns:xlink="http://www.w3.org/1999/xlink" viewBox="0 0 1231.31 149"><defs><style>.cls-1{fill:url(#linear-gradient);}.cls-2{fill:url(#linear-gradient-2);}.cls-3{fill:url(#linear-gradient-3);}.cls-4{fill:url(#linear-gradient-4);}.cls-5{fill:url(#linear-gradient-5);}.cls-6{fill:url(#linear-gradient-6);}.cls-7{fill:url(#linear-gradient-7);}.cls-8{fill:url(#linear-gradient-8);}.cls-9{fill:url(#linear-gradient-9);}.cls-10{fill:url(#linear-gradient-10);}.cls-11{fill:url(#linear-gradient-11);}</style><linearGradient id="linear-gradient" x1="81.22" y1="154.1" x2="81.22" y2="65.29" gradientUnits="userSpaceOnUse"><stop offset="0"/><stop offset="0.51" stop-color="#404040"/><stop offset="1"/></linearGradient><linearGradient id="linear-gradient-2" x1="158.35" y1="154.1" x2="158.35" y2="65.29" xlink:href="#linear-gradient"/><linearGradient id="linear-gradient-3" x1="264.73" y1="154.1" x2="264.73" y2="65.29" xlink:href="#linear-gradient"/><linearGradient id="linear-gradient-4" x1="404.26" y1="154.1" x2="404.26" y2="65.29" xlink:href="#linear-gradient"/><linearGradient id="linear-gradient-5" x1="865.81" y1="154.1" x2="865.81" y2="65.29" xlink:href="#linear-gradient"/><linearGradient id="linear-gradient-6" x1="952.65" y1="154.23" x2="952.65" y2="65.27" xlink:href="#linear-gradient"/><linearGradient id="linear-gradient-7" x1="1075.91" y1="154.1" x2="1075.91" y2="65.29" xlink:href="#linear-gradient"/><linearGradient id="linear-gradient-8" x1="1189.51" y1="154.12" x2="1189.51" y2="65.29" xlink:href="#linear-gradient"/><linearGradient id="linear-gradient-9" x1="579.91" y1="158.5" x2="579.91" y2="53.5" gradientUnits="userSpaceOnUse"><stop offset="0.03" stop-color="#ff6e3e"/><stop offset="0.13" stop-color="#ff733e"/><stop offset="0.25" stop-color="#fe813e"/><stop offset="0.38" stop-color="#fe983e"/><stop offset="0.51" stop-color="#fdb83e"/><stop offset="0.51" stop-color="#fdb83e"/><stop offset="0.63" stop-color="#fd9c3e"/><stop offset="0.77" stop-color="#fd833e"/><stop offset="0.9" stop-color="#fd733e"/><stop offset="1" stop-color="#fd6e3e"/></linearGradient><linearGradient id="linear-gradient-10" x1="667.27" y1="81.5" x2="667.27" y2="9.5" xlink:href="#linear-gradient-9"/><linearGradient id="linear-gradient-11" x1="750.84" y1="158.5" x2="750.84" y2="54.5" xlink:href="#linear-gradient-9"/></defs><title>logo-timespinfo</title><path class="cls-1" d="M30.22,65.29q30.83.13,55.18.13h50.44a32,32,0,0,0,4.75-.13c-.5,1.36-1,2.63-1.33,3.81s-.82,2.54-1.33,4.06-1,3.09-1.52,4.69q-1.78,5.59-4.06,12.82H95.68Q94,96,92.7,100.44t-3.11,10.15q-1.77,5.7-3.55,11.67-4.19,14-9.64,31.84H39.61l18.9-63.43H21.84Z" transform="translate(-21.84 -9.5)"/><path class="cls-2" d="M126.38,154.1l26-88.81q10.53.13,18.9.13h17.38c1.1,0,1.65,0,1.65-.13q-2.4,7.49-4.31,13.77T181.7,93.27q-2.41,7.94-4.95,16.3-6.09,19.55-13.58,44.53Z" transform="translate(-21.84 -9.5)"/><path class="cls-3" d="M177.26,154.1l24-75.74,11.17,46.69-7.87,29.05Zm64.32-88.81a7.32,7.32,0,0,1,3,.7,10,10,0,0,1,2.73,1.84,12.62,12.62,0,0,1,2.09,2.6,11.27,11.27,0,0,1,1.27,2.86l9.64,40.85,44.79-48.85h47.07L324.8,154.1h-41l8.37-29L265.94,154.1H226.23L205.67,65.29Z" transform="translate(-21.84 -9.5)"/><path class="cls-4" d="M359.57,65.42l112.27-.13L465.12,87.5H393.44L381,128.86a3.75,3.75,0,0,0,.44,2.47c.46,1,1,1.46,1.71,1.46h4.06c2.29,0,5.14,0,8.57-.07l11.48-.12q6.35-.06,12.81-.07c4.32,0,8.5,0,12.56-.06s7.63-.06,10.72-.06,5.52,0,7.3.06,2.53.11,2.28.19L446.6,154.1H352.84a12.43,12.43,0,0,1-3.3-.5,19.42,19.42,0,0,1-3.49-1.4,17.83,17.83,0,0,1-3.1-2,11.71,11.71,0,0,1-2.29-2.41,38.91,38.91,0,0,1-3.17-6.22,9.38,9.38,0,0,1-.38-6.59Zm40,33h57l-7.35,19.79H392.42Z" transform="translate(-21.84 -9.5)"/><path class="cls-5" d="M833.84,154.1l26-88.81q10.53.13,18.91.13h17.38c1.09,0,1.64,0,1.64-.13q-2.4,7.49-4.31,13.77t-4.31,14.21q-2.42,7.94-4.95,16.3-6.09,19.55-13.57,44.53Z" transform="translate(-21.84 -9.5)"/><path class="cls-6" d="M884.46,154.1l22.46-78.91,16.24,30.45-14.08,48.59Zm88.3-44.53,15.61-44.28h32.48L994,154.23H955.76L910.6,65.29h31.72q2.28-.24,6.15,2.29A20.46,20.46,0,0,1,955,74.81Z" transform="translate(-21.84 -9.5)"/><path class="cls-7" d="M1005.88,154.1l26.77-88.81h113.29l-7,20.81H1068l-22.33,68Zm61.65-35.65,7.36-21.82,57.47-.25-7.74,22.33Z" transform="translate(-21.84 -9.5)"/><path class="cls-8" d="M1137.18,154.1a14.29,14.29,0,0,1-5.64-.76,8.89,8.89,0,0,1-3.75-2.54A7.85,7.85,0,0,1,1126,147a12.73,12.73,0,0,1,.13-4.7q4.56-17.51,8.37-31.84,1.65-6.09,3.23-12t2.92-10.79q1.33-4.82,2.22-8.18a41.15,41.15,0,0,1,1.27-4.25q2-5.32,5.14-7.61a10.73,10.73,0,0,1,6.41-2.29h90a7.11,7.11,0,0,1,6.72,4.19,9.2,9.2,0,0,1,.76,4.38,13.61,13.61,0,0,1-1.39,5.14l-23.86,75.1Zm40.47-67.49q-2.91,10.53-5.2,19.16-1,3.67-2,7.23c-.67,2.37-1.29,4.54-1.84,6.53s-1,3.66-1.39,5-.62,2.2-.7,2.54c-.59,2-.4,3.38.57,4.31a4.58,4.58,0,0,0,3.24,1.4h28.54l14.46-46.18Z" transform="translate(-21.84 -9.5)"/><path class="cls-9" d="M614.84,69h-64.5s-18,.5-12-15.5c0,0-25.38,2-31.77,25.16a2.16,2.16,0,0,0,.22,1.66C508.85,83.83,518,97.5,536.34,97.5h85c10,0,10,24,0,24-.5.5-100,0-100,0l-24,37h123s42-1,42-42C662.34,101.5,667.34,69,614.84,69Z" transform="translate(-21.84 -9.5)"/><path class="cls-10" d="M804.34,14.5s-10-5-17-5h-244s-32-1-40,31c0,1-5.5,25.5,1,32,0,0,10-25,31-25h251s36,6,45,34C831.34,81.5,844.34,38.5,804.34,14.5Z" transform="translate(-21.84 -9.5)"/><path class="cls-11" d="M794.34,54.5s3,28-11,28h-111v76h36v-39l82.9-1.33c37.6,0,38.1-18.17,38.1-28.67C829.34,84.5,827.34,65.5,794.34,54.5Z" transform="translate(-21.84 -9.5)"/></svg>