<?xml version="1.0" encoding="utf-8"?>
<!-- Generator: Adobe Illustrator 22.0.0, SVG Export Plug-In . SVG Version: 6.00 Build 0)  -->
<svg version="1.1" id="Layer_1" xmlns="http://www.w3.org/2000/svg" xmlns:xlink="http://www.w3.org/1999/xlink" x="0px" y="0px"
	 viewBox="0 0 1275 168" style="enable-background:new 0 0 1275 168;" xml:space="preserve">
<style type="text/css">
	.st0{fill:url(#SVGID_1_);}
	.st1{fill:url(#SVGID_2_);}
	.st2{fill:url(#SVGID_3_);}
	.st3{fill:url(#SVGID_4_);}
	.st4{fill:url(#SVGID_5_);}
	.st5{fill:url(#SVGID_6_);}
	.st6{fill:url(#SVGID_7_);}
	.st7{fill:url(#SVGID_8_);}
	.st8{fill:url(#SVGID_9_);}
	.st9{fill:url(#SVGID_10_);}
	.st10{fill:url(#SVGID_11_);}
</style>
<g>
	<g>
		<linearGradient id="SVGID_1_" gradientUnits="userSpaceOnUse" x1="81.2179" y1="154.1023" x2="81.2179" y2="65.2947">
			<stop  offset="0" style="stop-color:#000000"/>
			<stop  offset="0.5074" style="stop-color:#404040"/>
			<stop  offset="1" style="stop-color:#000000"/>
		</linearGradient>
		<path class="st0" d="M30.2,65.3c20.6,0.1,38.9,0.1,55.2,0.1c6.9,0,13.6,0,20.2,0c6.6,0,12.5,0,17.7,0c5.2,0,9.3,0,12.5,0
			s4.8,0,4.8-0.1c-0.5,1.4-1,2.6-1.3,3.8c-0.4,1.2-0.8,2.5-1.3,4.1s-1,3.1-1.5,4.7c-1.2,3.7-2.5,8-4.1,12.8H95.7
			c-1.1,3.6-2.1,6.8-3,9.8c-0.9,3-1.9,6.3-3.1,10.1c-1.2,3.8-2.4,7.7-3.6,11.7c-2.8,9.3-6,19.9-9.6,31.8H39.6l18.9-63.4H21.8
			L30.2,65.3z"/>
		<linearGradient id="SVGID_2_" gradientUnits="userSpaceOnUse" x1="158.3529" y1="154.1023" x2="158.3529" y2="65.2947">
			<stop  offset="0" style="stop-color:#000000"/>
			<stop  offset="0.5074" style="stop-color:#404040"/>
			<stop  offset="1" style="stop-color:#000000"/>
		</linearGradient>
		<path class="st1" d="M126.4,154.1l26-88.8c7,0.1,13.3,0.1,18.9,0.1c2.4,0,4.7,0,7,0s4.3,0,6.1,0c1.8,0,3.2,0,4.3,0
			c1.1,0,1.6,0,1.6-0.1c-1.6,5-3,9.6-4.3,13.8s-2.7,8.9-4.3,14.2c-1.6,5.3-3.3,10.7-4.9,16.3c-4.1,13-8.6,27.9-13.6,44.5H126.4z"/>
		<linearGradient id="SVGID_3_" gradientUnits="userSpaceOnUse" x1="264.7316" y1="154.1023" x2="264.7316" y2="65.2947">
			<stop  offset="0" style="stop-color:#000000"/>
			<stop  offset="0.5074" style="stop-color:#404040"/>
			<stop  offset="1" style="stop-color:#000000"/>
		</linearGradient>
		<path class="st2" d="M177.3,154.1l24-75.7l11.2,46.7l-7.9,29.1H177.3z M241.6,65.3c1,0,2,0.2,3,0.7c1,0.5,1.9,1.1,2.7,1.8
			c0.8,0.8,1.5,1.6,2.1,2.6c0.6,1,1,1.9,1.3,2.9l9.6,40.9l44.8-48.8h47.1l-27.4,88.8h-41l8.4-29.1l-26.3,29.1h-39.7l-20.6-88.8
			H241.6z"/>
		<linearGradient id="SVGID_4_" gradientUnits="userSpaceOnUse" x1="404.2638" y1="154.1023" x2="404.2638" y2="65.2947">
			<stop  offset="0" style="stop-color:#000000"/>
			<stop  offset="0.5074" style="stop-color:#404040"/>
			<stop  offset="1" style="stop-color:#000000"/>
		</linearGradient>
		<path class="st3" d="M359.6,65.4l112.3-0.1l-6.7,22.2h-71.7L381,128.9c-0.2,0.7,0,1.5,0.4,2.5c0.5,1,1,1.5,1.7,1.5
			c0.4,0,1.8,0,4.1,0s5.1,0,8.6-0.1c3.4,0,7.3-0.1,11.5-0.1c4.2,0,8.5-0.1,12.8-0.1s8.5,0,12.6-0.1c4.1,0,7.6-0.1,10.7-0.1
			c3.1,0,5.5,0,7.3,0.1c1.8,0,2.5,0.1,2.3,0.2l-6.3,21.4h-93.8c-1,0-2.1-0.2-3.3-0.5c-1.2-0.3-2.3-0.8-3.5-1.4
			c-1.1-0.6-2.2-1.3-3.1-2c-0.9-0.8-1.7-1.6-2.3-2.4c-1.2-1.9-2.2-3.9-3.2-6.2c-0.9-2.3-1.1-4.5-0.4-6.6L359.6,65.4z M399.5,98.4h57
			l-7.4,19.8h-56.7L399.5,98.4z"/>
	</g>
	<g>
		<linearGradient id="SVGID_5_" gradientUnits="userSpaceOnUse" x1="865.8141" y1="154.1023" x2="865.8141" y2="65.2947">
			<stop  offset="0" style="stop-color:#000000"/>
			<stop  offset="0.5074" style="stop-color:#404040"/>
			<stop  offset="1" style="stop-color:#000000"/>
		</linearGradient>
		<path class="st4" d="M833.8,154.1l26-88.8c7,0.1,13.3,0.1,18.9,0.1c2.4,0,4.7,0,7,0c2.3,0,4.3,0,6.1,0c1.8,0,3.2,0,4.3,0
			c1.1,0,1.6,0,1.6-0.1c-1.6,5-3,9.6-4.3,13.8c-1.3,4.2-2.7,8.9-4.3,14.2c-1.6,5.3-3.3,10.7-4.9,16.3c-4.1,13-8.6,27.9-13.6,44.5
			H833.8z"/>
		<linearGradient id="SVGID_6_" gradientUnits="userSpaceOnUse" x1="952.6549" y1="154.2293" x2="952.6549" y2="65.2717">
			<stop  offset="0" style="stop-color:#000000"/>
			<stop  offset="0.5074" style="stop-color:#404040"/>
			<stop  offset="1" style="stop-color:#000000"/>
		</linearGradient>
		<path class="st5" d="M884.5,154.1l22.5-78.9l16.2,30.4l-14.1,48.6L884.5,154.1z M972.8,109.6l15.6-44.3h32.5L994,154.2h-38.2
			l-45.2-88.9h31.7c1.5-0.2,3.6,0.6,6.2,2.3c2.6,1.7,4.8,4.1,6.5,7.2L972.8,109.6z"/>
		<linearGradient id="SVGID_7_" gradientUnits="userSpaceOnUse" x1="1075.9078" y1="154.1023" x2="1075.9078" y2="65.2947">
			<stop  offset="0" style="stop-color:#000000"/>
			<stop  offset="0.5074" style="stop-color:#404040"/>
			<stop  offset="1" style="stop-color:#000000"/>
		</linearGradient>
		<path class="st6" d="M1005.9,154.1l26.8-88.8h113.3l-7,20.8H1068l-22.3,68H1005.9z M1067.5,118.5l7.4-21.8l57.5-0.3l-7.7,22.3
			L1067.5,118.5z"/>
		<linearGradient id="SVGID_8_" gradientUnits="userSpaceOnUse" x1="1189.5061" y1="154.1177" x2="1189.5061" y2="65.2947">
			<stop  offset="0" style="stop-color:#000000"/>
			<stop  offset="0.5074" style="stop-color:#404040"/>
			<stop  offset="1" style="stop-color:#000000"/>
		</linearGradient>
		<path class="st7" d="M1137.2,154.1c-2.2,0.1-4.1-0.2-5.6-0.8c-1.6-0.6-2.8-1.4-3.7-2.5c-0.9-1.1-1.5-2.4-1.8-3.8
			c-0.3-1.4-0.2-3,0.1-4.7c3-11.7,5.8-22.3,8.4-31.8c1.1-4.1,2.2-8.1,3.2-12.1c1.1-4,2-7.6,2.9-10.8c0.9-3.2,1.6-5.9,2.2-8.2
			c0.6-2.2,1-3.7,1.3-4.3c1.4-3.6,3.1-6.1,5.1-7.6c2.1-1.5,4.2-2.3,6.4-2.3h89.9c1.6,0,3,0.4,4.1,1.1c1.1,0.8,2,1.8,2.6,3
			c0.6,1.3,0.8,2.7,0.8,4.4c-0.1,1.7-0.6,3.4-1.4,5.1l-23.9,75.1H1137.2z M1177.7,86.6c-1.9,7-3.7,13.4-5.2,19.2
			c-0.7,2.5-1.4,4.9-2,7.2c-0.7,2.4-1.3,4.5-1.8,6.5c-0.6,2-1,3.7-1.4,5c-0.4,1.4-0.6,2.2-0.7,2.5c-0.6,1.9-0.4,3.4,0.6,4.3
			c1,0.9,2,1.4,3.2,1.4h28.5l14.5-46.2H1177.7z"/>
	</g>
	<g>
		<linearGradient id="SVGID_9_" gradientUnits="userSpaceOnUse" x1="579.9074" y1="158.5017" x2="579.9074" y2="53.5017">
			<stop  offset="0" style="stop-color:#E00006"/>
			<stop  offset="6.259262e-03" style="stop-color:#DC0006"/>
			<stop  offset="1.313610e-02" style="stop-color:#CE0006"/>
			<stop  offset="2.030610e-02" style="stop-color:#B80006"/>
			<stop  offset="2.763212e-02" style="stop-color:#9A0006"/>
			<stop  offset="3.217822e-02" style="stop-color:#830006"/>
			<stop  offset="0.1087" style="stop-color:#880006"/>
			<stop  offset="0.1967" style="stop-color:#960006"/>
			<stop  offset="0.2904" style="stop-color:#AD0006"/>
			<stop  offset="0.3881" style="stop-color:#CD0006"/>
			<stop  offset="0.4879" style="stop-color:#F60006"/>
			<stop  offset="0.5074" style="stop-color:#FF0006"/>
			<stop  offset="0.5847" style="stop-color:#E40006"/>
			<stop  offset="0.704" style="stop-color:#C10006"/>
			<stop  offset="0.8165" style="stop-color:#A80006"/>
			<stop  offset="0.9183" style="stop-color:#980006"/>
			<stop  offset="1" style="stop-color:#930006"/>
		</linearGradient>
		<path class="st8" d="M614.8,69h-64.5c0,0-18,0.5-12-15.5c0,0-25.4,2-31.8,25.2c-0.2,0.6-0.1,1.2,0.2,1.7
			c2.1,3.5,11.2,17.2,29.5,17.2c3,0,83,0,85,0c10,0,10,24,0,24c-0.5,0.5-100,0-100,0l-24,37h123c0,0,42-1,42-42
			C662.3,101.5,667.3,69,614.8,69z"/>
		<linearGradient id="SVGID_10_" gradientUnits="userSpaceOnUse" x1="667.2656" y1="81.5017" x2="667.2656" y2="9.4983">
			<stop  offset="0" style="stop-color:#E00006"/>
			<stop  offset="6.259262e-03" style="stop-color:#DC0006"/>
			<stop  offset="1.313610e-02" style="stop-color:#CE0006"/>
			<stop  offset="2.030610e-02" style="stop-color:#B80006"/>
			<stop  offset="2.763212e-02" style="stop-color:#9A0006"/>
			<stop  offset="3.217822e-02" style="stop-color:#830006"/>
			<stop  offset="0.1087" style="stop-color:#880006"/>
			<stop  offset="0.1967" style="stop-color:#960006"/>
			<stop  offset="0.2904" style="stop-color:#AD0006"/>
			<stop  offset="0.3881" style="stop-color:#CD0006"/>
			<stop  offset="0.4879" style="stop-color:#F60006"/>
			<stop  offset="0.5074" style="stop-color:#FF0006"/>
			<stop  offset="0.5847" style="stop-color:#E40006"/>
			<stop  offset="0.704" style="stop-color:#C10006"/>
			<stop  offset="0.8165" style="stop-color:#A80006"/>
			<stop  offset="0.9183" style="stop-color:#980006"/>
			<stop  offset="1" style="stop-color:#930006"/>
		</linearGradient>
		<path class="st9" d="M804.3,14.5c0,0-10-5-17-5s-7,0-7,0h-237c0,0-32-1-40,31c0,1-5.5,25.5,1,32c0,0,10-25,31-25s21,0,21,0h230
			c0,0,36,6,45,34C831.3,81.5,844.3,38.5,804.3,14.5z"/>
		<linearGradient id="SVGID_11_" gradientUnits="userSpaceOnUse" x1="750.8434" y1="158.5017" x2="750.8434" y2="54.5017">
			<stop  offset="0" style="stop-color:#E00006"/>
			<stop  offset="6.259262e-03" style="stop-color:#DC0006"/>
			<stop  offset="1.313610e-02" style="stop-color:#CE0006"/>
			<stop  offset="2.030610e-02" style="stop-color:#B80006"/>
			<stop  offset="2.763212e-02" style="stop-color:#9A0006"/>
			<stop  offset="3.217822e-02" style="stop-color:#830006"/>
			<stop  offset="0.1087" style="stop-color:#880006"/>
			<stop  offset="0.1967" style="stop-color:#960006"/>
			<stop  offset="0.2904" style="stop-color:#AD0006"/>
			<stop  offset="0.3881" style="stop-color:#CD0006"/>
			<stop  offset="0.4879" style="stop-color:#F60006"/>
			<stop  offset="0.5074" style="stop-color:#FF0006"/>
			<stop  offset="0.5847" style="stop-color:#E40006"/>
			<stop  offset="0.704" style="stop-color:#C10006"/>
			<stop  offset="0.8165" style="stop-color:#A80006"/>
			<stop  offset="0.9183" style="stop-color:#980006"/>
			<stop  offset="1" style="stop-color:#930006"/>
		</linearGradient>
		<path class="st10" d="M794.3,54.5c0,0,3,28-11,28c-1,0-111,0-111,0v76h36v-39l82.9-1.3c37.6,0,38.1-18.2,38.1-28.7
			C829.3,84.5,827.3,65.5,794.3,54.5z"/>
	</g>
</g>
<g>
</g>
<g>
</g>
<g>
</g>
<g>
</g>
<g>
</g>
<g>
</g>
<g>
</g>
<g>
</g>
<g>
</g>
<g>
</g>
<g>
</g>
<g>
</g>
<g>
</g>
<g>
</g>
<g>
</g>
</svg>
